<svg width="24px" height="24px" viewBox="0 0 24 24" version="1.1" xmlns="http://www.w3.org/2000/svg" xmlns:xlink="http://www.w3.org/1999/xlink">
    <g id="Places" transform="translate(-432.000000, -288.000000)" fill-rule="nonzero">
        <path d="M433.001,308.001 L432.001,310.001 L432.001,312.001 L456.001,312.001 L456.001,310.001 L455.001,308.001 L433.001,308.001 Z M433.237,296.001 L435.001,296.001 L435.001,306.001 L438.001,306.001 L438.001,296.001 L440.001,296.001 L440.001,306.001 L443.001,306.001 L443.001,296.001 L445.001,296.001 L445.001,306.001 L448.001,306.001 L448.001,296.001 L450.001,296.001 L450.001,306.001 L453.001,306.001 L453.001,296.001 L454.765,296.001 C455.448,296.001 456.001,295.448 456.001,294.765 C456.001,294.297 455.736,293.869 455.318,293.66 L444.001,288.001 L432.684,293.659 C432.265,293.868 432.001,294.297 432.001,294.764 C432.001,295.448 432.554,296.001 433.237,296.001 Z M444.001,291.001 C444.829,291.001 445.501,291.673 445.501,292.501 C445.501,293.329 444.829,294.001 444.001,294.001 C443.173,294.001 442.501,293.329 442.501,292.501 C442.501,291.673 443.173,291.001 444.001,291.001 Z" id="museum"></path>
    </g>
</svg>