<?xml version="1.0" encoding="UTF-8"?>
<svg width="24px" height="24px" viewBox="0 0 24 24" version="1.1" xmlns="http://www.w3.org/2000/svg" xmlns:xlink="http://www.w3.org/1999/xlink">
    <g id="Controls" transform="translate(-360.000000, -216.000000)" fill-rule="nonzero">
        <path d="M380.486,219.516 C375.8,214.83 368.202,214.83 363.515,219.516 C358.829,224.203 358.829,231.8 363.515,236.487 C368.201,241.173 375.799,241.173 380.486,236.487 C385.173,231.801 385.173,224.202 380.486,219.516 Z M377.76,224.652 L371.15,232.363 L366.4,228.801 C365.958,228.47 365.869,227.843 366.2,227.401 C366.531,226.96 367.157,226.869 367.6,227.201 L370.85,229.639 L376.24,223.35 C376.6,222.932 377.232,222.883 377.65,223.242 C378.071,223.601 378.12,224.233 377.76,224.652 Z" id="check-circle"></path>
    </g>
</svg>