<?xml version="1.0" encoding="UTF-8"?>
<svg width="32px" height="32px" viewBox="0 0 32 32" version="1.1" xmlns="http://www.w3.org/2000/svg" xmlns:xlink="http://www.w3.org/1999/xlink">
    <!-- Generator: Sketch 51.3 (57544) - http://www.bohemiancoding.com/sketch -->
    <title>logo</title>
    <desc>Created with Sketch.</desc>
    <defs></defs>
    <g id="Page-1" stroke="none" stroke-width="1" fill="none" fill-rule="evenodd">
        <g id="logo">
            <rect id="Rectangle" fill="#000000" fill-rule="nonzero" x="0" y="0" width="32" height="32" rx="2"></rect>
            <path d="M23.7513374,18.5704078 C23.0016568,20.1444427 22.1022983,21.4564284 21.0529331,22.5057937 C19.9730746,23.5856521 18.898521,24.1298348 17.8299758,24.1298348 C16.8334112,24.1298348 16.0819529,23.5975518 15.5895568,22.5512101 C15.1684803,21.6564225 14.9077248,20.5008935 14.8057521,19.0841036 C14.208743,20.6777097 13.5430568,21.8888496 12.8065911,22.7179831 C11.9733187,23.6561043 11.0788041,24.1298348 10.1265109,24.1298348 C9.03883847,24.1298348 8.21821083,23.4535244 7.67403095,22.1263919 C7.14057625,20.8254156 6.875,19.0829102 6.875,16.8976632 C6.875,15.3118526 7.01515764,13.5706634 7.2952242,11.6748527 C7.37371061,11.1142356 7.51897815,10.7183103 7.73929286,10.4860867 C7.96471474,10.2484799 8.31158463,10.1328566 8.7727639,10.1328566 C9.12103727,10.1328566 9.3977652,10.2102214 9.59951858,10.3691786 C9.81214635,10.5367035 9.91307413,10.8303116 9.91307413,11.2409347 C9.91307413,11.3216305 9.90211671,11.4695556 9.8795247,11.6941676 C9.55801762,13.8911326 9.397361,15.7601046 9.397361,17.3005641 C9.397361,18.7286338 9.51961338,19.8289053 9.76225231,20.5990202 C9.9948236,21.3371812 10.2928251,21.688054 10.642224,21.688054 C10.9626315,21.688054 11.3902806,21.3160751 11.9003494,20.5587003 C12.4249796,19.779704 12.9498752,18.6180062 13.4730795,17.0750873 C13.9972472,15.5293274 14.4416008,13.6849924 14.805938,11.5418378 C14.8965764,11.0206669 15.0672911,10.6531963 15.3256036,10.4429419 C15.5808601,10.235175 15.922896,10.1328566 16.3473006,10.1328566 C16.7091999,10.1328566 16.9834906,10.2142395 17.1657575,10.3839363 C17.3494557,10.5549656 17.4392627,10.805806 17.4392627,11.1281225 C17.4392627,11.3083657 17.4278458,11.4510765 17.4052262,11.5521858 C17.1055884,13.2965056 16.9557816,15.040685 16.9557816,16.7848509 C16.9557816,17.9731222 16.9958849,18.9195606 17.0758526,19.6232755 C17.154514,20.3154966 17.3053989,20.8383907 17.525103,21.1909392 C17.7332158,21.5248876 18.028807,21.688054 18.4262691,21.688054 C18.8956574,21.688054 19.4412344,21.3183873 20.0537321,20.5657418 C20.6624534,19.8177368 21.2221489,18.8900379 21.7323604,17.7825345 C21.1038457,17.3708064 20.6249103,16.8446476 20.2972952,16.2052698 C19.9548112,15.5368737 19.7839444,14.7679729 19.7839444,13.9000806 C19.7839444,13.0346928 19.9187203,12.3003018 20.1897775,11.6973378 C20.4626139,11.090416 20.8382693,10.633462 21.3165325,10.3296242 C21.7933687,10.026693 22.3242941,9.875 22.906527,9.875 C23.6309278,9.875 24.2120098,10.1383475 24.6391899,10.6623551 C25.0619391,11.1809275 25.2716559,11.885576 25.2716559,12.7719581 C25.2716559,13.9626481 25.0221993,15.2779468 24.524104,16.7181317 C25.0322598,16.797387 25.6212723,16.8371273 26.2908944,16.8371273 C26.5672381,16.8371273 26.7774508,16.8998774 26.9169885,17.0327704 C27.0552959,17.1644917 27.125,17.3370924 27.125,17.5423046 C27.125,17.8491718 27.0326456,18.123256 26.8490033,18.3602137 C26.6576505,18.6071205 26.3618009,18.7352204 25.9701559,18.747069 C25.1527316,18.7574161 24.4131612,18.6986189 23.7513374,18.5704078 Z M22.4914929,15.9150615 C22.86786,14.7992827 23.0554996,13.8745159 23.0554996,13.1426269 C23.0554996,12.7109557 22.999877,12.3999749 22.8943509,12.2129059 C22.7973067,12.040873 22.6763145,11.962228 22.5197421,11.962228 C22.2801076,11.962228 22.0830579,12.1032977 21.9206394,12.4042497 C21.7492871,12.7217555 21.661664,13.1830652 21.661664,13.7872683 C21.661664,14.7290809 21.9385686,15.4349117 22.4914929,15.9150615 Z" id="W" stroke="#FFFFFF" stroke-width="0.25" fill="#FFFFFF"></path>
        </g>
    </g>
</svg>