<?xml version="1.0" encoding="UTF-8"?>
<svg width="27px" height="29px" viewBox="0 0 27 29" version="1.1" xmlns="http://www.w3.org/2000/svg" xmlns:xlink="http://www.w3.org/1999/xlink">
    <path d="M12.5087472,0.00184349725 C11.7418523,0.00184349725 11.5833116,0.135497048 11.3344394,0.412943383 C11.2367341,0.406491143 11.13442,0.404647646 11.0274972,0.404647646 C10.437578,0.404647646 9.67990066,0.491292016 9.03375488,0.923592121 C8.40973106,1.33561376 8.112928,2.06471692 8.44567926,2.59840937 C8.44567926,2.59840937 8.66874242,2.27118861 9.40245433,2.27118861 C9.50569017,2.27118861 9.619987,2.28224959 9.74165782,2.29238883 C10.7555813,2.41221615 11.5058847,2.9459086 11.4146316,4.35526225 C11.3335177,5.76369414 10.8053557,7.3343538 8.64477696,7.35278877 C8.64477696,7.35278877 8.36640888,7.35278877 8.06960582,7.32513631 C7.06397807,7.21544822 6.74781829,6.58405042 6.74781829,6.58405042 C6.74781829,6.58405042 7.61702724,6.34808277 7.62440123,5.24474967 C7.61702724,4.49444629 6.96350747,3.80774356 6.02055863,3.53029723 C5.71177284,3.43996586 5.37256935,3.39572193 5.01953962,3.39572193 C3.90791078,3.39572193 2.65986315,3.86120498 1.81830666,4.95992934 C-0.089712995,7.47906833 -0.244566764,11.1513148 0.220916291,14.5663935 C0.689164592,17.9888461 2.8598826,21.1587396 2.92348325,21.245384 C2.96957069,21.3062194 3.01104937,21.3394024 3.05805855,21.3394024 C3.08202402,21.3394024 3.10691123,21.3283414 3.13272019,21.3071412 C4.07013854,20.3973753 4.96423471,19.1539364 5.34676039,18.3225191 C5.75601677,18.6488181 5.54217109,19.3428949 5.31726443,20.0839808 C5.10341875,20.8416581 4.58355253,21.8472859 4.39551581,22.1717414 C4.21393133,22.4888229 3.97058969,22.8575224 4.29781045,23.0501678 C4.3309934,23.0704463 4.37339384,23.0815073 4.42409001,23.0815073 C4.84440739,23.0815073 5.83344366,22.3487171 6.93677676,20.8776063 C8.17191992,19.2221458 8.79870898,17.7528785 8.79870898,17.7528785 C8.88904034,17.773157 9.04020712,17.9261672 9.01531991,18.3427976 C8.99872843,18.7658802 8.56366308,20.3402269 7.7165761,21.8058072 C6.86027162,23.2704657 6.06941131,24.1866839 5.90994879,24.3949991 C5.81132169,24.5157481 5.89520082,24.5913315 5.95880147,24.6401842 C6.02148038,24.6825846 7.53591337,26.096547 9.73612733,27.2911332 C12.3428324,28.6802084 13.4987052,28.9300023 13.4987052,28.9300023 C13.4987052,28.9300023 14.6518127,28.6866607 17.2585178,27.2985072 C19.4578101,26.1020775 20.9786953,24.6816629 21.034922,24.633732 C21.0985226,24.5904098 21.1796365,24.5222004 21.0837746,24.3894686 C20.9335296,24.1903709 20.139904,23.269544 19.2854431,21.8048854 C18.4411213,20.3494444 17.9894645,18.7649585 17.9830123,18.3474063 C17.965499,17.9261672 18.1074483,17.7869832 18.1940927,17.7519567 C18.1940927,17.7519567 18.827334,19.2304415 20.0624772,20.8766846 C21.1713408,22.3496389 22.1511595,23.0805855 22.5733204,23.0805855 C22.6267818,23.0805855 22.6691823,23.0695245 22.7042087,23.0492461 C23.0212902,22.8566006 22.7853226,22.4823707 22.5991294,22.1689761 C22.4258406,21.8463641 21.8986004,20.8471886 21.6746155,20.083059 C21.4598481,19.3336774 21.2367849,18.6405224 21.6534153,18.3215974 C22.0368627,19.1530146 22.9245066,20.4029058 23.8646902,21.2997672 C23.8895774,21.3255761 23.9181516,21.3384806 23.9458041,21.3384806 C23.9872828,21.3384806 24.0315267,21.3062194 24.0702402,21.2499928 C24.1393713,21.1578179 26.3137763,17.9934549 26.7783376,14.5654717 C27.2447424,11.1430191 27.0908104,7.47906833 25.1809473,4.95900759 C24.3449213,3.85751799 23.0876561,3.38926969 21.9686533,3.38926969 C21.6193106,3.38926969 21.2856376,3.43443537 20.9805388,3.52200149 C20.030216,3.80774356 19.3794614,4.50089853 19.3849919,5.24382792 C19.3849919,6.34716102 20.2588096,6.58312867 20.2588096,6.58312867 C20.2588096,6.58312867 19.9666153,7.19885675 18.9250394,7.32421456 C18.7305504,7.34818003 18.5415919,7.35924101 18.3609292,7.35924101 C17.5774429,7.35924101 16.9174709,7.11036888 16.3091168,6.25129916 C15.7191976,5.42449065 15.7385544,3.72202094 15.7044497,3.15422379 C15.677719,2.5781309 15.5542046,1.28583933 14.9486158,0.758599117 C14.3448704,0.217532675 13.609315,0.0359481963 12.6921752,0 C12.6248875,0.00184349725 12.5649739,0.00184349725 12.5087472,0.00184349725" id="path4050"></path>
</svg>