<?xml version="1.0" encoding="UTF-8"?>
<svg width="36px" height="20px" viewBox="0 0 36 20" version="1.1" xmlns="http://www.w3.org/2000/svg" xmlns:xlink="http://www.w3.org/1999/xlink">
    <!-- Generator: Sketch 51.3 (57544) - http://www.bohemiancoding.com/sketch -->
    <title>logo</title>
    <desc>Created with Sketch.</desc>
    <defs></defs>
    <g id="Page-1" stroke="none" stroke-width="1" fill="none" fill-rule="evenodd">
        <g id="bank_of_america" transform="translate(-7.000000, -15.000000)" fill="#FFFFFF" fill-rule="nonzero">
            <g id="logo" transform="translate(7.000000, 15.000000)">
                <path d="M18.1916667,19.7333333 C23.8444444,14.9027778 31.6555556,10.2777778 36.075,8.53055556 C35.3555556,8.11944444 34.3277778,7.50277778 33.1972222,6.78333333 C27.6472222,8.63333333 21.0694444,12.7444444 15.2111111,17.3694444 C16.2388889,18.1916667 17.2666667,18.9111111 18.1916667,19.7333333 Z" id="path18"></path>
                <path d="M15.6222222,6.68055556 C14.8,6.26944444 13.875,5.85833333 13.1555556,5.55 C10.9972222,6.57777778 8.325,8.22222222 4.83055556,10.6888889 C5.55,11.1 6.37222222,11.6138889 7.19444444,12.025 C9.96944444,10.0722222 12.6416667,8.22222222 15.6222222,6.68055556 Z" id="path20"></path>
                <path d="M20.6583333,4.31666667 C19.6305556,3.80277778 16.1361111,2.46666667 13.6694444,1.85 C12.95,2.15833333 11.9222222,2.56944444 11.2027778,2.775 C12.1277778,2.98055556 15.4166667,3.90555556 18.1916667,5.34444444 C18.9111111,5.03611111 19.9388889,4.625 20.6583333,4.31666667 Z" id="path22"></path>
                <path d="M8.73611111,4.00833333 C5.65277778,5.44722222 2.36388889,7.4 0.513888889,8.63333333 C1.13055556,8.94166667 1.74722222,9.14722222 2.67222222,9.55833333 C6.68055556,6.88611111 9.76388889,5.24166667 10.9972222,4.72777778 C10.0722222,4.41944444 9.25,4.21388889 8.73611111,4.00833333 Z" id="path24"></path>
                <path d="M23.0222222,3.49444444 C23.7416667,3.28888889 24.5638889,3.08333333 25.2833333,2.775 C23.2277778,1.85 20.5555556,0.925 18.1916667,0.411111111 C17.7805556,0.513888889 16.65,0.822222222 15.9305556,1.02777778 C16.7527778,1.33611111 19.425,1.95277778 23.0222222,3.49444444 Z" id="path26"></path>
                <path d="M9.86666667,13.5666667 C10.6888889,14.0805556 11.6138889,14.8 12.5388889,15.3138889 C18.3972222,10.7916667 24.1527778,7.29722222 30.525,5.24166667 C29.6,4.83055556 28.8805556,4.41944444 27.8527778,3.90555556 C23.9472222,4.93333333 17.4722222,7.60555556 9.86666667,13.5666667 Z" id="path28"></path>
            </g>
        </g>
    </g>
</svg>