<?xml version="1.0" encoding="UTF-8"?>
<svg width="27px" height="27px" viewBox="0 0 27 27" version="1.1" xmlns="http://www.w3.org/2000/svg" xmlns:xlink="http://www.w3.org/1999/xlink">
    <g id="barclays" transform="translate(-7.000000, -7.000000)" fill-rule="nonzero">
        <g id="logo" transform="translate(8.000000, 7.000000)">
            <path d="M11.6742533,0.00172051233 C10.9585201,0.00172051233 10.8105561,0.126457656 10.5782869,0.385394762 C10.4870998,0.379372969 10.3916113,0.377652457 10.2918216,0.377652457 C9.74125768,0.377652457 9.03412711,0.458516536 8.43108754,0.861976677 C7.84869411,1.24651118 7.57169163,1.92697381 7.8822441,2.42506213 C7.8822441,2.42506213 8.09042609,2.11967119 8.77519,2.11967119 C8.87153869,2.11967119 8.97821046,2.12999426 9.09176427,2.13945708 C10.0380461,2.25129038 10.7382946,2.7493787 10.6531292,4.06471038 C10.5774267,5.3791818 10.0844999,6.84505831 8.06805943,6.86226343 C8.06805943,6.86226343 7.80826207,6.86226343 7.53125959,6.83645574 C6.59272011,6.73408526 6.29765225,6.14480979 6.29765225,6.14480979 C6.29765225,6.14480979 7.10887381,5.92458421 7.11575586,4.89485758 C7.10887381,4.19460906 6.49895219,3.55371822 5.61891013,3.29478111 C5.33072432,3.21047601 5.01415005,3.16918371 4.68467194,3.16918371 C3.647203,3.16918371 2.48241615,3.60361308 1.69700227,4.62903842 C-0.0837279873,6.98011852 -0.228251023,10.4073791 0.20617834,13.5946282 C0.643188472,16.7887593 2.66909174,19.7471803 2.72844942,19.8280444 C2.77146222,19.8848213 2.81017375,19.9157905 2.85404682,19.9157905 C2.87641348,19.9157905 2.89964039,19.9054674 2.92372757,19.8856815 C3.79860809,19.0366087 4.63305657,17.8761231 4.99006287,17.1001721 C5.37201661,17.4047027 5.17243718,18.0524756 4.96253468,18.7441216 C4.76295525,19.4512522 4.27777077,20.3897916 4.10227851,20.6926018 C3.93280805,20.9885299 3.70570042,21.3326324 4.01109136,21.5124259 C4.04206058,21.5313516 4.08163236,21.5416746 4.12894645,21.5416746 C4.52122326,21.5416746 5.44427813,20.857771 6.47400476,19.4848021 C7.62674802,17.9397821 8.21172221,16.5685337 8.21172221,16.5685337 C8.29602732,16.5874594 8.43710933,16.7302619 8.41388241,17.1190977 C8.3983978,17.5139553 7.99235689,18.9832728 7.20178148,20.3510801 C6.4026035,21.7180271 5.66450371,22.5731218 5.51567939,22.7675397 C5.42363198,22.8802332 5.50191529,22.9507742 5.56127297,22.9963678 C5.61977039,23.0359396 7.03317127,24.3555725 9.08660273,25.4704645 C11.5194072,26.7668706 12.5981684,27 12.5981684,27 C12.5981684,27 13.6743489,26.7728924 16.1071533,25.4773466 C18.1597245,24.3607341 19.5791472,23.0350793 19.6316228,22.990346 C19.6909805,22.949914 19.766683,22.886255 19.6772164,22.7623781 C19.5369946,22.5765628 18.7963141,21.7171669 17.9988566,20.3502198 C17.210862,18.9918754 16.7893364,17.513095 16.7833146,17.123399 C16.7669698,16.7302619 16.8994492,16.6003632 16.9803133,16.5676735 C16.9803133,16.5676735 17.5713093,17.9475244 18.7240526,19.4839419 C19.7589407,20.8586312 20.673393,21.5408144 21.0673903,21.5408144 C21.1172852,21.5408144 21.156857,21.5304913 21.1895467,21.5115657 C21.4854748,21.3317721 21.2652493,20.9825081 21.0914775,20.690021 C20.9297494,20.3889314 20.4376828,19.4564137 20.2286406,18.7432613 C20.0282009,18.0438731 19.8200189,17.3969604 20.2088547,17.0993118 C20.5667213,17.8752629 21.3951479,19.0417702 22.2726092,19.8787995 C22.2958361,19.9028866 22.3225041,19.9149302 22.3483118,19.9149302 C22.3870233,19.9149302 22.4283156,19.8848213 22.4644464,19.8323456 C22.5289656,19.74632 24.5583099,16.7930606 24.991879,13.5937679 C25.4271686,10.3996368 25.2835058,6.98011852 23.501055,4.62817817 C22.7208027,3.60017205 21.5474133,3.16316192 20.5030623,3.16316192 C20.1770252,3.16316192 19.8656125,3.20531447 19.5808677,3.28703881 C18.6939436,3.55371822 18.0866027,4.20063085 18.0917643,4.89399732 C18.0917643,5.92372395 18.9072871,6.14394953 18.9072871,6.14394953 C18.9072871,6.14394953 18.6345859,6.71860065 17.6624964,6.83559549 C17.4809824,6.85796215 17.3046299,6.86828522 17.1360197,6.86828522 C16.4048019,6.86828522 15.7888585,6.63601606 15.2210894,5.83425731 C14.6705255,5.06260753 14.6885909,3.47371439 14.6567614,2.9437966 C14.631814,2.40613649 14.5165396,1.20005735 13.9513513,0.707990824 C13.3878836,0.203020455 12.7013991,0.0335499904 11.8454443,0 C11.7826456,0.00172051233 11.7267289,0.00172051233 11.6742533,0.00172051233" id="path4050"></path>
        </g>
    </g>
</svg>