<?xml version="1.0" encoding="UTF-8"?>
<svg width="27px" height="16px" viewBox="0 0 27 16" version="1.1" xmlns="http://www.w3.org/2000/svg" xmlns:xlink="http://www.w3.org/1999/xlink">
    <g id="boa" transform="translate(-7.000000, -12.000000)" fill-rule="nonzero">
        <g id="logo" transform="translate(7.000000, 13.000000)">
            <path d="M10.5126667,3.426 C11.3113333,3.73666667 12.11,4.06966667 12.8866667,4.44666667 C10.3992947,5.44446287 7.99545319,6.63902695 5.698,8.019 C4.92133333,7.61933333 4.12266667,7.22033333 3.324,6.865 C5.63133333,5.534 8.02766667,4.38033333 10.5126667,3.426 Z M7.53933333,2.38333333 C4.96763975,3.20541073 2.4790045,4.26764807 0.106333333,5.556 C0.860666667,5.84466667 1.615,6.133 2.34733333,6.44366667 C4.63591425,5.08830021 7.05096292,3.95886613 9.55833333,3.07133333 C8.89266667,2.827 8.22733333,2.583 7.53933333,2.38333333 Z" id="Shape"></path>
            <path d="M15.9043333,3.31533333 C13.8667949,2.34169174 11.760724,1.51849251 9.603,0.852333333 C8.82633333,1.074 8.072,1.318 7.33966667,1.56233333 C9.56074297,2.22969647 11.7268706,3.06786314 13.8186667,4.06933333 C14.5066667,3.803 15.194,3.55933333 15.9043333,3.31533333 Z M19.2103333,2.339 C17.1466667,1.42933333 14.9943333,0.675 12.7976667,0.076 C12.0876667,0.209 11.4,0.364333333 10.7123333,0.541666667 C12.8866667,1.18533333 15.0163333,1.984 17.058,2.96033333 C17.7676667,2.73833333 18.5,2.51666667 19.2103333,2.339 Z M24.535,4.114 C19.3206667,5.867 14.4393333,8.374 10.0243333,11.5026667 C11.1336667,12.1903333 12.1986667,12.9003333 13.2413333,13.6766667 C17.4421838,10.3478467 22.0778892,7.60820946 27.02,5.53366667 C26.2090106,5.03071128 25.3801381,4.55718102 24.535,4.114 Z M20.9406667,2.42766667 C15.5266667,3.84766667 10.446,6.15533333 5.853,9.217 C6.87366667,9.72733333 7.89433333,10.26 8.89266667,10.8366667 C13.397,7.73033333 18.3893333,5.28966667 23.714,3.692 C22.8046667,3.24866667 21.8946667,2.805 20.9406667,2.42766667 Z" id="Shape"></path>
        </g>
    </g>
</svg>