<svg width="27px" height="27px" viewBox="0 0 27 27" version="1.1" xmlns="http://www.w3.org/2000/svg" xmlns:xlink="http://www.w3.org/1999/xlink">
    <g id="chase" transform="translate(-7.000000, -6.000000)" fill-rule="nonzero">
        <g id="logo" transform="translate(8.000000, 7.000000)">
            <path d="M9.08584615,0 C8.59692308,0 8.20276923,0.396307692 8.20276923,0.885230769 L8.20276923,7.09046154 L24.5913846,7.09046154 L17.1304615,0 L9.08584615,0 Z" id="Shape"></path>
            <path d="M25.1944615,8.96646154 C25.1944615,8.47753846 24.7981538,8.08123077 24.3070769,8.08123077 L18.1061538,8.08123077 L18.1061538,24.472 L25.1901538,17.0046154 L25.1944615,8.96646154 Z" id="Shape"></path>
            <path d="M16.2258462,25.0686154 C16.7147692,25.0686154 17.1089231,24.6723077 17.1089231,24.1833846 L17.1089231,17.9803077 L0.716,17.9803077 L8.18338462,25.0686154 L16.2258462,25.0686154 Z" id="Shape"></path>
            <path d="M0.117230769,16.1021538 C0.117230769,16.5910769 0.513538462,16.9895385 1.00030769,16.9895385 L7.20553846,16.9895385 L7.20553846,0.598769231 L0.117230769,8.064 L0.117230769,16.1021538 Z" id="Shape"></path>
        </g>
    </g>
</svg>