<?xml version="1.0" encoding="UTF-8"?>
<svg width="27px" height="27px" viewBox="0 0 27 27" version="1.1" xmlns="http://www.w3.org/2000/svg" xmlns:xlink="http://www.w3.org/1999/xlink">
    <!-- Generator: Sketch 51.3 (57544) - http://www.bohemiancoding.com/sketch -->
    <title>ins_5</title>
    <desc>Created with Sketch.</desc>
    <defs></defs>
    <g id="Page-1" stroke="none" stroke-width="1" fill="none" fill-rule="evenodd">
        <g id="citi-(ins_5)" transform="translate(-7.000000, -6.000000)" fill-rule="nonzero">
            <g id="logo" transform="translate(7.000000, 6.000000)">
                <path d="M8.23028039,17.0821775 L8.17988799,17.13257 C7.40720443,17.922051 6.50853986,18.3419877 5.57628035,18.3419877 C3.64457146,18.3419877 2.24198283,16.8890067 2.24198283,14.8901079 C2.24198283,12.8912091 3.64457146,11.4382281 5.57628035,11.4382281 C6.50014113,11.4382281 7.3988057,11.8581648 8.17988799,12.6560446 L8.23028039,12.706437 L9.47329307,11.2030635 L9.43969814,11.1610699 C8.40665382,9.94325338 7.16364114,9.34694325 5.64347023,9.34694325 C4.11490058,9.34694325 2.71231195,9.85926604 1.70446384,10.7915255 C0.612628376,11.7993737 0.0331157089,13.2187598 0.0331157089,14.8901079 C0.0331157089,16.5698548 0.612628376,17.9892409 1.70446384,18.997089 C2.71231195,19.9293485 4.10650185,20.4416713 5.64347023,20.4416713 C7.17203987,20.4416713 8.40665382,19.8453611 9.43969814,18.6275447 L9.47329307,18.585551 L8.23028039,17.0821775 Z" id="Shape" fill="#FFFFFF"></path>
                <polygon id="Shape" fill="#FFFFFF" points="10.7331032 20.2317029 12.9251729 20.2317029 12.9251729 9.51491793 10.7331032 9.51491793"></polygon>
                <path d="M21.5254768,17.8968548 C20.9375654,18.2496016 20.3916477,18.4343738 19.9045211,18.4343738 C19.1990274,18.4343738 18.8714768,18.0564307 18.8714768,17.224956 L18.8714768,11.5390129 L21.1055401,11.5390129 L21.1055401,9.52331667 L18.8714768,9.52331667 L18.8714768,6.18901915 L16.7214008,7.33964575 L16.7214008,9.52331667 L14.8652805,9.52331667 L14.8652805,11.5390129 L16.7214008,11.5390129 L16.7214008,17.5861016 C16.7214008,19.2322535 17.695654,20.3576839 19.1570337,20.3912789 C20.1480844,20.4080763 20.7443945,20.1141206 21.1055401,19.9041523 L21.1307363,19.8873548 L21.6598566,17.8212662 L21.5254768,17.8968548 Z" id="Shape" fill="#FFFFFF"></path>
                <polygon id="Shape" fill="#FFFFFF" points="23.3396034 20.2317029 25.5400718 20.2317029 25.5400718 9.51491793 23.3396034 9.51491793"></polygon>
                <path d="M26.8502744,7.60840525 C24.8429769,4.76123432 21.5002806,3.06468999 18.1071919,3.06468999 C14.7141033,3.06468999 11.371407,4.76123432 9.37250826,7.60840525 L9.27172345,7.75118373 L11.7997425,7.75118373 L11.8249387,7.71758879 C13.5466792,5.93705712 15.79754,4.99639888 18.1071919,4.99639888 C20.4168439,4.99639888 22.6677047,5.93705712 24.3894452,7.71758879 L24.4146414,7.75118373 L26.9426604,7.75118373 L26.8502744,7.60840525 Z" id="Shape" fill="#D9261C"></path>
            </g>
        </g>
    </g>
</svg>