<?xml version="1.0" encoding="UTF-8"?>
<svg width="27px" height="27px" viewBox="0 0 27 27" version="1.1" xmlns="http://www.w3.org/2000/svg" xmlns:xlink="http://www.w3.org/1999/xlink">
    <!-- Generator: Sketch 51.3 (57544) - http://www.bohemiancoding.com/sketch -->
    <title>ins_3</title>
    <desc>Created with Sketch.</desc>
    <defs></defs>
    <g id="Page-1" stroke="none" stroke-width="1" fill="none" fill-rule="evenodd">
        <g id="chase" transform="translate(-7.000000, -6.000000)" fill="#FFFFFF" fill-rule="nonzero">
            <g id="logo" transform="translate(7.000000, 6.000000)">
                <path d="M10.0858462,1 C9.59692308,1 9.20276923,1.39630769 9.20276923,1.88523077 L9.20276923,8.09046154 L25.5913846,8.09046154 L18.1304615,1 L10.0858462,1 Z" id="Shape"></path>
                <path d="M26.1944615,9.96646154 C26.1944615,9.47753846 25.7981538,9.08123077 25.3070769,9.08123077 L19.1061538,9.08123077 L19.1061538,25.472 L26.1901538,18.0046154 L26.1944615,9.96646154 Z" id="Shape"></path>
                <path d="M17.2258462,26.0686154 C17.7147692,26.0686154 18.1089231,25.6723077 18.1089231,25.1833846 L18.1089231,18.9803077 L1.716,18.9803077 L9.18338462,26.0686154 L17.2258462,26.0686154 Z" id="Shape"></path>
                <path d="M1.11723077,17.1021538 C1.11723077,17.5910769 1.51353846,17.9895385 2.00030769,17.9895385 L8.20553846,17.9895385 L8.20553846,1.59876923 L1.11723077,9.064 L1.11723077,17.1021538 Z" id="Shape"></path>
            </g>
        </g>
    </g>
</svg>