<?xml version="1.0" encoding="UTF-8"?>
<svg width="27px" height="11px" viewBox="0 0 27 11" version="1.1" xmlns="http://www.w3.org/2000/svg" xmlns:xlink="http://www.w3.org/1999/xlink">
    <!-- Generator: Sketch 51.3 (57544) - http://www.bohemiancoding.com/sketch -->
    <title>ins_10</title>
    <desc>Created with Sketch.</desc>
    <defs></defs>
    <g id="Page-1" stroke="none" stroke-width="1" fill="none" fill-rule="evenodd">
        <g id="amex" transform="translate(-7.000000, -14.000000)" fill="#FFFFFF" fill-rule="nonzero">
            <g id="logo" transform="translate(7.000000, 14.000000)">
                <path d="M27,8.61520477 C27,9.28973036 26.5724266,9.60492923 25.8115976,9.60492923 L24.3528179,9.60492923 L24.3528179,8.93040365 L25.8115976,8.93040365 C25.9436423,8.93040365 26.0568235,8.90518774 26.1071262,8.86105989 C26.1511411,8.81693205 26.2014439,8.7475883 26.2014439,8.65933261 C26.2014439,8.57107693 26.157429,8.48282125 26.1071262,8.43238943 C26.0631113,8.38826158 25.9750815,8.36304567 25.836749,8.36304567 C25.1387983,8.33782976 24.2647881,8.38826158 24.2647881,7.39223315 C24.2647881,6.94465075 24.5603167,6.44663653 25.3462972,6.44663653 L26.8490918,6.44663653 L26.8490918,7.12116211 L25.4531905,7.12116211 C25.3211458,7.12116211 25.2268281,7.12116211 25.1576619,7.16528996 C25.0884956,7.23463371 25.0444807,7.29767348 25.0444807,7.41114508 C25.0444807,7.52461667 25.1136469,7.58765645 25.2016768,7.63808827 C25.2959944,7.66330418 25.3777364,7.68221611 25.4972054,7.68221611 L25.8996274,7.68221611 C26.3272007,7.68221611 26.597578,7.77677577 26.7799255,7.92807123 C26.9056823,8.09197464 27,8.29370192 27,8.61520477 Z M23.824639,7.94067918 C23.6485794,7.78307975 23.3782021,7.69482406 22.9443409,7.69482406 L22.541919,7.69482406 C22.4287378,7.69482406 22.340708,7.66960815 22.2463903,7.65069622 C22.1520727,7.60656838 22.0891942,7.53722463 22.0891942,7.42375303 C22.0891942,7.30397746 22.1143456,7.24724166 22.2023754,7.17789791 C22.2715417,7.13377007 22.3595715,7.13377007 22.4979041,7.13377007 L23.8938053,7.13377007 L23.8938053,6.45924448 L22.3972986,6.45924448 C21.5861667,6.45924448 21.3157895,6.9572587 21.3157895,7.4048411 C21.3157895,8.39456556 22.1960876,8.35043772 22.8940382,8.37565363 C23.0260829,8.37565363 23.1204006,8.40086954 23.1644155,8.44499738 C23.2084304,8.48912522 23.2587331,8.57738091 23.2587331,8.67194057 C23.2587331,8.76650023 23.2147182,8.82954001 23.1644155,8.87366785 C23.0952492,8.91779569 23.0072194,8.9430116 22.8688868,8.9430116 L21.4101071,8.9430116 L21.4101071,9.61753719 L22.8688868,9.61753719 C23.6360037,9.61753719 24.0572892,9.30233832 24.0572892,8.62781273 C24.0510014,8.29370192 23.9629716,8.09197464 23.824639,7.94067918 Z M20.9448067,8.95561956 L19.1716348,8.95561956 L19.1716348,8.31891783 L20.9007918,8.31891783 L20.9007918,7.68221611 L19.1716348,7.68221611 L19.1716348,7.0959462 L20.9448067,7.0959462 L20.9448067,6.44033255 L18.4296693,6.44033255 L18.4296693,9.59862526 L20.9448067,9.59862526 L20.9448067,8.95561956 Z M17.6185375,6.61053994 C17.3733116,6.47815641 17.077783,6.4529405 16.7005123,6.4529405 L14.9650675,6.4529405 L14.9650675,9.61123321 L15.7321844,9.61123321 L15.7321844,8.45760534 L16.5433163,8.45760534 C16.8136935,8.45760534 16.9708896,8.48282125 17.0840708,8.58998886 C17.2161155,8.7475883 17.2161155,9.01865933 17.2161155,9.22669059 L17.2161155,9.61123321 L17.958081,9.61123321 L17.958081,8.9997474 C17.958081,8.70346046 17.9329297,8.57107693 17.8448999,8.41347749 C17.7757336,8.31891783 17.6436889,8.21175022 17.4613414,8.14240646 C17.6625524,8.07306271 18.0020959,7.80199168 18.0020959,7.30397746 C17.9958081,6.93834677 17.8637634,6.73661949 17.6185375,6.61053994 Z M13.3428039,6.44663653 L10.9345599,6.44663653 L9.96623195,7.48679281 L9.0482068,6.44663653 L6.01117839,6.44663653 L6.01117839,9.60492923 L9.0041919,9.60492923 L9.9725198,8.56477295 L10.8905449,9.60492923 L12.3493246,9.60492923 L12.3493246,8.54586102 L13.2925012,8.54586102 C13.9464369,8.54586102 14.6003726,8.36934965 14.6003726,7.48679281 C14.6003726,6.62945187 13.9275734,6.44663653 13.3428039,6.44663653 Z M17.0086167,7.75155986 C16.8954355,7.7956877 16.7822543,7.7956877 16.6439218,7.7956877 L15.7258966,7.82090361 L15.7258966,7.10225018 L16.6439218,7.10225018 C16.7759665,7.10225018 16.914299,7.10225018 17.0086167,7.17159393 C17.1029343,7.21572178 17.1658128,7.30397746 17.1658128,7.44266496 C17.1721006,7.57504849 17.1029343,7.68852009 17.0086167,7.75155986 Z M13.3428039,7.91546327 L12.3556125,7.91546327 L12.3556125,7.10225018 L13.3428039,7.10225018 C13.6131812,7.10225018 13.7892408,7.21572178 13.7892408,7.48679281 C13.7892408,7.75786384 13.6131812,7.91546327 13.3428039,7.91546327 Z M10.4378202,8.02263089 L11.6136469,6.78705131 L11.6136469,9.3338582 L10.4378202,8.02263089 Z M8.6143456,8.95561956 L6.74685608,8.95561956 L6.74685608,8.31891783 L8.41313461,8.31891783 L8.41313461,7.68221611 L6.74685608,7.68221611 L6.74685608,7.0959462 L8.63949697,7.0959462 L9.47578016,8.01632691 L8.6143456,8.95561956 Z M24.9061481,4.17090066 L23.824639,4.17090066 L22.4035864,1.80060514 L22.4035864,4.17090066 L20.8756404,4.17090066 L20.5863996,3.47115916 L19.0081509,3.47115916 L18.7126223,4.17090066 L17.838612,4.17090066 C17.4739171,4.17090066 17.0023288,4.076341 16.7319516,3.80526997 C16.4867257,3.53419894 16.3483931,3.16856825 16.3483931,2.61381823 C16.3483931,2.14101992 16.4175594,1.70604548 16.7508151,1.37193467 C16.9771775,1.12607955 17.3858873,1.00630398 17.9014905,1.00630398 L18.6183046,1.00630398 L18.6183046,1.68082957 L17.9014905,1.68082957 C17.6311132,1.68082957 17.4739171,1.72495741 17.316721,1.85734093 C17.1846763,1.98972446 17.11551,2.24188356 17.11551,2.57599437 C17.11551,2.91010517 17.1846763,3.16226427 17.316721,3.31986371 C17.4299022,3.4333353 17.6311132,3.47746314 17.8323242,3.47746314 L18.1718677,3.47746314 L19.2533768,1 L20.3789008,1 L21.6364695,3.98178134 L21.6364695,1 L22.8122962,1 L24.1390312,3.18748018 L24.1390312,1 L24.9061481,1 L24.9061481,4.17090066 Z M15.9774103,1.01260795 L15.2102934,1.01260795 L15.2102934,4.17090066 L15.9774103,4.17090066 L15.9774103,1.01260795 Z M14.3740102,1.14499148 C14.1287844,1.01260795 13.8584071,1.01260795 13.4685608,1.01260795 L11.7394038,1.01260795 L11.7394038,4.17090066 L12.4813694,4.17090066 L12.4813694,3.01727279 L13.2925012,3.01727279 C13.5628784,3.01727279 13.7389381,3.0424887 13.8584071,3.14965631 C13.9904518,3.30725575 13.9715883,3.57832678 13.9715883,3.76114213 L13.9715883,4.16459669 L14.7387052,4.16459669 L14.7387052,3.52789496 C14.7387052,3.25682393 14.7135538,3.1244404 14.6066605,2.96053699 C14.5374942,2.86597733 14.4054495,2.75880971 14.2419655,2.68946596 C14.4431765,2.5949063 14.7827201,2.34905118 14.7827201,1.85103696 C14.7827201,1.5043182 14.625524,1.30259092 14.3740102,1.14499148 Z M11.2049371,3.51528701 L9.45062878,3.51528701 L9.45062878,2.87858528 L11.1797857,2.87858528 L11.1797857,2.22297163 L9.45062878,2.22297163 L9.45062878,1.65561366 L11.2049371,1.65561366 L11.2049371,1 L8.68979972,1 L8.68979972,4.17090066 L11.2049371,4.17090066 L11.2049371,3.51528701 Z M8.12389381,1.01260795 L6.88518864,1.01260795 L5.96716348,3.15596029 L4.97997205,1.01260795 L3.76013041,1.01260795 L3.76013041,3.99438929 L2.47741034,1.01260795 L1.35188635,1.01260795 L0,4.17090066 L0.811131812,4.17090066 L1.10666046,3.47115916 L2.67862133,3.47115916 L2.97414998,4.17090066 L4.50209595,4.17090066 L4.50209595,1.68713354 L5.6087564,4.17090066 L6.26269213,4.17090066 L7.36935259,1.68713354 L7.36935259,4.17090066 L8.13646949,4.17090066 L8.12389381,1.01260795 Z M20.3223102,2.7903296 L19.806707,1.54844604 L19.284816,2.7903296 L20.3223102,2.7903296 Z M13.7892408,2.29861936 C13.6760596,2.36796311 13.5628784,2.36796311 13.4056823,2.36796311 L12.4876572,2.36796311 L12.4876572,1.66822161 L13.4056823,1.66822161 C13.5377271,1.66822161 13.701211,1.66822161 13.7892408,1.71234945 C13.8835585,1.78169321 13.9212855,1.86994889 13.9212855,2.00863639 C13.9212855,2.1473239 13.8835585,2.24818754 13.7892408,2.29861936 Z M1.37703773,2.7903296 L1.89264089,1.54844604 L2.40824406,2.7903296 L1.37703773,2.7903296 Z" id="Shape"></path>
            </g>
        </g>
    </g>
</svg>