<?xml version="1.0" encoding="UTF-8"?>
<svg width="27px" height="16px" viewBox="0 0 27 16" version="1.1" xmlns="http://www.w3.org/2000/svg" xmlns:xlink="http://www.w3.org/1999/xlink">
    <!-- Generator: Sketch 51.3 (57544) - http://www.bohemiancoding.com/sketch -->
    <title>ins_1</title>
    <desc>Created with Sketch.</desc>
    <defs></defs>
    <g id="Page-1" stroke="none" stroke-width="1" fill="none" fill-rule="evenodd">
        <g id="boa" transform="translate(-7.000000, -12.000000)" fill="#FFFFFF" fill-rule="nonzero">
            <g id="logo" transform="translate(7.000000, 12.000000)">
                <path d="M10.5126667,4.426 C11.3113333,4.73666667 12.11,5.06966667 12.8866667,5.44666667 C10.3992947,6.44446287 7.99545319,7.63902695 5.698,9.019 C4.92133333,8.61933333 4.12266667,8.22033333 3.324,7.865 C5.63133333,6.534 8.02766667,5.38033333 10.5126667,4.426 Z M7.53933333,3.38333333 C4.96763975,4.20541073 2.4790045,5.26764807 0.106333333,6.556 C0.860666667,6.84466667 1.615,7.133 2.34733333,7.44366667 C4.63591425,6.08830021 7.05096292,4.95886613 9.55833333,4.07133333 C8.89266667,3.827 8.22733333,3.583 7.53933333,3.38333333 Z" id="Shape"></path>
                <path d="M15.9043333,4.31533333 C13.8667949,3.34169174 11.760724,2.51849251 9.603,1.85233333 C8.82633333,2.074 8.072,2.318 7.33966667,2.56233333 C9.56074297,3.22969647 11.7268706,4.06786314 13.8186667,5.06933333 C14.5066667,4.803 15.194,4.55933333 15.9043333,4.31533333 Z M19.2103333,3.339 C17.1466667,2.42933333 14.9943333,1.675 12.7976667,1.076 C12.0876667,1.209 11.4,1.36433333 10.7123333,1.54166667 C12.8866667,2.18533333 15.0163333,2.984 17.058,3.96033333 C17.7676667,3.73833333 18.5,3.51666667 19.2103333,3.339 Z M24.535,5.114 C19.3206667,6.867 14.4393333,9.374 10.0243333,12.5026667 C11.1336667,13.1903333 12.1986667,13.9003333 13.2413333,14.6766667 C17.4421838,11.3478467 22.0778892,8.60820946 27.02,6.53366667 C26.2090106,6.03071128 25.3801381,5.55718102 24.535,5.114 Z M20.9406667,3.42766667 C15.5266667,4.84766667 10.446,7.15533333 5.853,10.217 C6.87366667,10.7273333 7.89433333,11.26 8.89266667,11.8366667 C13.397,8.73033333 18.3893333,6.28966667 23.714,4.692 C22.8046667,4.24866667 21.8946667,3.805 20.9406667,3.42766667 Z" id="Shape"></path>
            </g>
        </g>
    </g>
</svg>