<?xml version="1.0" encoding="UTF-8"?>
<svg width="27px" height="15px" viewBox="0 0 27 15" version="1.1" xmlns="http://www.w3.org/2000/svg" xmlns:xlink="http://www.w3.org/1999/xlink">
    <!-- Generator: Sketch 51.3 (57544) - http://www.bohemiancoding.com/sketch -->
    <title>ins_4</title>
    <desc>Created with Sketch.</desc>
    <defs></defs>
    <g id="Page-1" stroke="none" stroke-width="1" fill="none" fill-rule="evenodd">
        <g id="wells-fargo-(ins_4)" transform="translate(-7.000000, -12.000000)" fill="#FFFFFF" fill-rule="nonzero">
            <g id="logo" transform="translate(7.000000, 12.000000)">
                <path d="M9.1257872,2.0061103 L9.1257872,3.48043863 L9.46297815,3.48043863 C9.88853134,3.48043863 10.0815436,3.27347467 10.0815436,2.69444039 L10.0815436,2.6037481 L10.5768614,2.6037481 L10.5768614,4.89198053 L10.0815436,4.89198053 L10.0815436,4.79431237 C10.0815436,4.21992868 9.88853134,4.00133707 9.46297815,4.00133707 L9.1257872,4.00133707 L9.1257872,5.6500741 L10.5396544,5.6500741 C11.1838063,5.6500741 11.4163473,5.22451853 11.493089,4.41061442 L12.0070104,4.41061442 L12.0070104,6.17562312 L7.36310854,6.17562312 L7.36310854,5.6500741 L7.75610409,5.6500741 C8.00027747,5.6500741 8.13050208,5.58263591 8.13050208,5.15708093 L8.13050208,2.40608589 C8.13050208,2.09912788 7.99097274,2.0061103 7.66308651,2.0061103 L7.51891373,2.0061103 C7.18172278,2.0061103 7.0212682,2.08517495 6.90267004,2.43631646 L5.62135513,6.17562312 L4.64699525,6.17562312 L3.90517633,3.73856256 L3.89124602,3.73856256 L3.06803599,6.17562312 L2.08204965,6.17562312 L0.751901253,2.25725777 C0.693739221,2.06424614 0.593768392,2.0061103 0.324020391,2.0061103 L0.226353421,2.0061103 L0.226353421,1.48288657 L2.27738954,1.48288657 L2.27738954,2.0061103 L1.97973329,2.0061103 C1.8239281,2.0061103 1.76114049,2.09912788 1.76114049,2.19214546 C1.76114049,2.26190835 1.78673893,2.35027535 1.8239281,2.44794351 L2.71224747,5.06638864 L2.72617778,5.06638864 L3.57264072,2.6037481 L3.45404257,2.26888481 C3.38195618,2.05959556 3.24010511,2.0061103 3.03313877,2.0061103 L2.86570713,2.0061103 L2.86570713,1.48288657 L4.98418025,1.48288657 L4.98418025,2.0061103 L4.60978821,2.0061103 C4.46560948,2.0061103 4.40979893,2.06889732 4.40979893,2.1619149 C4.40979893,2.23400307 4.44468424,2.33399712 4.46796096,2.40143472 L5.24465328,5.01987985 L5.25858359,5.01987985 L6.16085708,2.46189644 C6.18877724,2.37818062 6.21431615,2.30841714 6.21431615,2.22005073 C6.21431615,2.10842964 6.16085708,2.0061103 5.9120105,2.0061103 L5.57017016,2.0061103 L5.57017016,1.48288657 L12.0070104,1.48288657 L12.0069866,3.08743951 L11.4791111,3.08743951 C11.3721394,2.40841118 11.3116795,2.0061103 10.3698772,2.0061103 L9.1257872,2.0061103 Z M16.8392751,6.17562312 L16.8392751,4.41061442 L16.2974455,4.41061442 C16.2253591,5.21754206 16.0788527,5.6500741 15.3440168,5.6500741 L14.2766393,5.6500741 L14.2766393,2.33167183 C14.2766393,2.07122261 14.383611,2.0061103 14.6952155,2.0061103 L15.0928664,2.0061103 L15.0928664,1.48288657 L12.5000006,1.48288657 L12.5000006,2.0061103 L12.909278,2.0061103 C13.192986,2.0061103 13.2883253,2.09912788 13.2883253,2.31306831 L13.2883253,5.33613962 C13.2883253,5.58263591 13.1534513,5.6500741 12.953462,5.6500741 L12.5000006,5.6500741 L12.5000006,6.17562312 L16.8392751,6.17562312 Z M21.655258,6.17562312 L21.655258,4.41061442 L21.1111067,4.41061442 C21.0390143,5.21754206 20.8878645,5.6500741 20.1623274,5.6500741 L19.0926222,5.6500741 L19.0926222,2.33167183 C19.0926222,2.07122261 19.1995939,2.0061103 19.5112043,2.0061103 L19.9065275,2.0061103 L19.9065275,1.48288657 L17.3113341,1.48288657 L17.3113341,2.0061103 L17.7229391,2.0061103 C18.0089689,2.0061103 18.1043142,2.09912788 18.1043142,2.31306831 L18.1043142,5.33613962 C18.1043142,5.58263591 17.9671125,5.6500741 17.7694509,5.6500741 L17.3113341,5.6500741 L17.3113341,6.17562312 L21.655258,6.17562312 Z M25.227133,1.83635337 C25.1829609,1.79216928 24.7504187,1.3433602 23.9062834,1.3433602 C23.0202917,1.3433602 22.1249953,1.79216987 22.1249953,2.75490151 C22.1249953,3.62694146 22.8203025,4.02459176 23.6202536,4.19667398 C23.8853522,4.25248453 24.0434851,4.28271569 24.2853308,4.33387506 C24.8852927,4.46177438 25.2852713,4.64315836 25.2852713,5.05941218 C25.2852713,5.37567194 24.950408,5.7151864 24.2876525,5.7151864 C23.3621321,5.7151864 22.8133254,5.19893854 22.6993826,4.41061442 L22.1552253,4.41061442 L22.1552253,6.17562312 L22.636595,6.17562312 L22.7924002,5.75471873 C22.906343,5.85471277 23.3574767,6.31514949 24.2155661,6.31514949 C25.3085242,6.31514949 26.1340559,5.82913279 26.1340559,4.86872644 C26.1340559,3.93855065 25.3643347,3.53857506 24.4248542,3.35021402 C24.2574226,3.3083576 24.103945,3.28277642 23.931864,3.2432441 C23.348178,3.11767007 22.97378,2.97349312 22.97378,2.55491402 C22.97378,2.19214546 23.3574767,1.94332329 23.9341857,1.94332329 C24.8015799,1.94332329 25.1364431,2.49445229 25.3155012,3.08743951 L25.8433767,3.08743951 L25.8433767,1.48288657 L25.4620017,1.48288657 L25.227133,1.83635337 Z M3.68891121,13.491456 L3.68891121,12.9635811 L3.33544441,12.9635811 C3.00755819,12.9635811 2.88663831,12.8659123 2.88663831,12.6008125 L2.88663831,11.3218205 L3.1773175,11.3218205 C3.61682482,11.3218205 3.80750937,11.5125068 3.80750937,12.0101506 L3.80750937,12.1659552 L4.30050551,12.1659552 L4.30050551,10.0056221 L3.80750937,10.0056221 L3.80750937,10.0986397 C3.80750937,10.4637335 3.67495708,10.7985968 3.21917392,10.7985968 L2.88663831,10.7985968 L2.88663831,9.31961728 L3.80983704,9.31961728 C4.84930625,9.31961728 4.95859967,9.84284101 5.02836434,10.3986212 L5.53530866,10.3986212 L5.53530866,8.79639355 L1.09372374,8.79639355 L1.09372374,9.31961728 L1.56346102,9.31961728 C1.77507676,9.31961728 1.89367492,9.41496015 1.89367492,9.58471768 L1.89367492,12.6170907 C1.89367492,12.814753 1.78670321,12.9635811 1.53555277,12.9635811 L1.09372374,12.9635811 L1.09372374,13.491456 L3.68891121,13.491456 Z M23.3412009,8.65454189 C21.8017585,8.65454189 20.7832205,9.73121992 20.7832205,11.1427618 C20.7832205,12.5519784 21.8017585,13.6379582 23.3412009,13.6379582 C24.8759939,13.6379582 25.8968596,12.5519784 25.8968596,11.1427618 C25.8968596,9.73121992 24.8759939,8.65454189 23.3412009,8.65454189 Z M23.3412009,9.20799619 C24.4527624,9.20799619 24.7852981,10.1311955 24.7852981,11.1427618 C24.7852981,12.1543281 24.4527624,13.0798528 23.3412009,13.0798528 C22.2226623,13.0798528 21.8924543,12.1543281 21.8924543,11.1427618 C21.8924543,10.1311955 22.2226623,9.20799619 23.3412009,9.20799619 Z M19.0112311,9.18009389 C18.9089148,9.0894016 18.4694074,8.65454487 17.6020193,8.65454487 C16.2137267,8.65454487 15.3416891,9.71261938 15.3416891,11.1427648 C15.3416891,12.5845373 16.2276808,13.6379612 17.6020193,13.6379612 C18.4856833,13.6379612 18.9647253,13.233335 19.0740187,13.133341 L19.3367956,13.491459 L19.8181594,13.491459 L19.8181594,11.8636513 C19.8181594,11.5869239 19.9204817,11.5125098 20.1948791,11.5125098 L20.3251037,11.5125098 L20.3251037,10.9869602 L18.1577971,10.9869602 L18.1577971,11.5125098 L18.4787062,11.5125098 C18.7112531,11.5125098 18.8531042,11.6171545 18.8531042,11.8450478 L18.8531042,12.1194494 C18.8531042,12.656626 18.5228903,13.0310216 17.8043303,13.0310216 C16.9043844,13.0310216 16.4532507,12.2217687 16.4532507,11.1427648 C16.4532507,10.0800391 16.9043844,9.266135 17.776422,9.266135 C18.6856726,9.266135 18.9949553,10.112595 19.0995993,10.3986242 L19.6809577,10.3986242 L19.6809577,8.79639653 L19.1856398,8.79639653 L19.0112311,9.18009389 Z M15.1068205,12.3892004 L15.1068205,12.5170997 C15.1068205,13.3263526 14.720796,13.6379612 14.1347883,13.6379612 C13.4487799,13.6379612 13.2185607,13.3077491 13.2185607,12.6682531 L13.2185607,12.4240821 C13.2185607,11.6171545 12.8743986,11.2915929 12.0884015,11.2915929 L11.7163312,11.2915929 L11.7163312,12.7101113 C11.7163312,12.8984717 11.8023717,12.9635841 12.0070104,12.9635841 L12.5232595,12.9635841 L12.5232595,13.491459 L7.8351735,13.491459 L7.8351735,12.9635841 L8.35607194,12.9635841 C8.50024472,12.9635841 8.55373355,12.9287047 8.55373355,12.8449865 C8.55373355,12.8008024 8.53980324,12.7287148 8.51188308,12.6519749 C8.48628465,12.5891884 8.26538799,11.9845742 8.26538799,11.9845742 L6.59107157,11.9845742 C6.59107157,11.9845742 6.38411118,12.5426797 6.34922587,12.6356972 C6.32594915,12.7054601 6.3073754,12.763596 6.3073754,12.8310342 C6.3073754,12.9310276 6.39108824,12.9635841 6.53061759,12.9635841 L7.02826312,12.9635841 L7.02826312,13.491459 L4.81909414,13.491459 L4.81909414,12.9635841 C5.19349212,12.9635841 5.43068249,12.9101012 5.56323477,12.582212 L7.06081481,8.79639653 L7.96076063,8.79639653 L9.49555365,12.582212 C9.62345059,12.91475 9.86529629,12.9635841 10.2396943,12.9635841 L10.4303788,12.9635841 C10.6326898,12.9635841 10.7233857,12.8984717 10.7233857,12.7101113 L10.7233857,9.5754189 C10.7233857,9.38705785 10.6512933,9.31962026 10.4303788,9.31962026 L9.93738864,9.31962026 L9.93738864,8.79639653 L13.0209169,8.79639653 C14.0441103,8.79639653 14.52548,9.28008794 14.52548,10.0126015 C14.52548,10.9218479 13.6208848,11.1009072 13.1976533,11.1241613 L13.1976533,11.1357877 C13.6929711,11.1729948 14.1115473,11.3776334 14.1115473,12.1008453 L14.1115473,12.3752474 C14.1115473,12.8566129 14.2138696,12.9635835 14.3836289,12.9635835 C14.5510605,12.9635835 14.6394228,12.8310336 14.6394228,12.5170991 L14.6394228,12.3891998 L15.1068205,12.3892004 Z M8.07236386,11.4636757 L7.43984433,9.75447759 L7.41894886,9.75447759 L6.78642932,11.4636757 L8.07236386,11.4636757 Z M13.5394758,10.0428321 C13.5394758,9.63122944 13.2441412,9.31962026 12.5883688,9.31962026 L11.7163312,9.31962026 L11.7163312,10.7683692 L12.5883688,10.7683692 C13.192986,10.7683692 13.5394758,10.4962929 13.5394758,10.0428321 Z" id="path18"></path>
                <path d="M9.1257872,2.0061103 L9.1257872,3.48043863 L9.46297815,3.48043863 C9.88853134,3.48043863 10.0815436,3.27347467 10.0815436,2.69444039 L10.0815436,2.6037481 L10.5768614,2.6037481 L10.5768614,4.89198053 L10.0815436,4.89198053 L10.0815436,4.79431237 C10.0815436,4.21992868 9.88853134,4.00133707 9.46297815,4.00133707 L9.1257872,4.00133707 L9.1257872,5.6500741 L10.5396544,5.6500741 C11.1838063,5.6500741 11.4163473,5.22451853 11.493089,4.41061442 L12.0070104,4.41061442 L12.0070104,6.17562312 L7.36310854,6.17562312 L7.36310854,5.6500741 L7.75610409,5.6500741 C8.00027747,5.6500741 8.13050208,5.58263591 8.13050208,5.15708093 L8.13050208,2.40608589 C8.13050208,2.09912788 7.99097274,2.0061103 7.66308651,2.0061103 L7.51891373,2.0061103 C7.18172278,2.0061103 7.0212682,2.08517495 6.90267004,2.43631646 L5.62135513,6.17562312 L4.64699525,6.17562312 L3.90517633,3.73856256 L3.89124602,3.73856256 L3.06803599,6.17562312 L2.08204965,6.17562312 L0.751901253,2.25725777 C0.693739221,2.06424614 0.593768392,2.0061103 0.324020391,2.0061103 L0.226353421,2.0061103 L0.226353421,1.48288657 L2.27738954,1.48288657 L2.27738954,2.0061103 L1.97973329,2.0061103 C1.8239281,2.0061103 1.76114049,2.09912788 1.76114049,2.19214546 C1.76114049,2.26190835 1.78673893,2.35027535 1.8239281,2.44794351 L2.71224747,5.06638864 L2.72617778,5.06638864 L3.57264072,2.6037481 L3.45404257,2.26888481 C3.38195618,2.05959556 3.24010511,2.0061103 3.03313877,2.0061103 L2.86570713,2.0061103 L2.86570713,1.48288657 L4.98418025,1.48288657 L4.98418025,2.0061103 L4.60978821,2.0061103 C4.46560948,2.0061103 4.40979893,2.06889732 4.40979893,2.1619149 C4.40979893,2.23400307 4.44468424,2.33399712 4.46796096,2.40143472 L5.24465328,5.01987985 L5.25858359,5.01987985 L6.16085708,2.46189644 C6.18877724,2.37818062 6.21431615,2.30841714 6.21431615,2.22005073 C6.21431615,2.10842964 6.16085708,2.0061103 5.9120105,2.0061103 L5.57017016,2.0061103 L5.57017016,1.48288657 L12.0070104,1.48288657 L12.0069866,3.08743951 L11.4791111,3.08743951 C11.3721394,2.40841118 11.3116795,2.0061103 10.3698772,2.0061103 L9.1257872,2.0061103 Z M16.8392751,6.17562312 L16.8392751,4.41061442 L16.2974455,4.41061442 C16.2253591,5.21754206 16.0788527,5.6500741 15.3440168,5.6500741 L14.2766393,5.6500741 L14.2766393,2.33167183 C14.2766393,2.07122261 14.383611,2.0061103 14.6952155,2.0061103 L15.0928664,2.0061103 L15.0928664,1.48288657 L12.5000006,1.48288657 L12.5000006,2.0061103 L12.909278,2.0061103 C13.192986,2.0061103 13.2883253,2.09912788 13.2883253,2.31306831 L13.2883253,5.33613962 C13.2883253,5.58263591 13.1534513,5.6500741 12.953462,5.6500741 L12.5000006,5.6500741 L12.5000006,6.17562312 L16.8392751,6.17562312 Z M21.655258,6.17562312 L21.655258,4.41061442 L21.1111067,4.41061442 C21.0390143,5.21754206 20.8878645,5.6500741 20.1623274,5.6500741 L19.0926222,5.6500741 L19.0926222,2.33167183 C19.0926222,2.07122261 19.1995939,2.0061103 19.5112043,2.0061103 L19.9065275,2.0061103 L19.9065275,1.48288657 L17.3113341,1.48288657 L17.3113341,2.0061103 L17.7229391,2.0061103 C18.0089689,2.0061103 18.1043142,2.09912788 18.1043142,2.31306831 L18.1043142,5.33613962 C18.1043142,5.58263591 17.9671125,5.6500741 17.7694509,5.6500741 L17.3113341,5.6500741 L17.3113341,6.17562312 L21.655258,6.17562312 Z M25.227133,1.83635337 C25.1829609,1.79216928 24.7504187,1.3433602 23.9062834,1.3433602 C23.0202917,1.3433602 22.1249953,1.79216987 22.1249953,2.75490151 C22.1249953,3.62694146 22.8203025,4.02459176 23.6202536,4.19667398 C23.8853522,4.25248453 24.0434851,4.28271569 24.2853308,4.33387506 C24.8852927,4.46177438 25.2852713,4.64315836 25.2852713,5.05941218 C25.2852713,5.37567194 24.950408,5.7151864 24.2876525,5.7151864 C23.3621321,5.7151864 22.8133254,5.19893854 22.6993826,4.41061442 L22.1552253,4.41061442 L22.1552253,6.17562312 L22.636595,6.17562312 L22.7924002,5.75471873 C22.906343,5.85471277 23.3574767,6.31514949 24.2155661,6.31514949 C25.3085242,6.31514949 26.1340559,5.82913279 26.1340559,4.86872644 C26.1340559,3.93855065 25.3643347,3.53857506 24.4248542,3.35021402 C24.2574226,3.3083576 24.103945,3.28277642 23.931864,3.2432441 C23.348178,3.11767007 22.97378,2.97349312 22.97378,2.55491402 C22.97378,2.19214546 23.3574767,1.94332329 23.9341857,1.94332329 C24.8015799,1.94332329 25.1364431,2.49445229 25.3155012,3.08743951 L25.8433767,3.08743951 L25.8433767,1.48288657 L25.4620017,1.48288657 L25.227133,1.83635337 Z M3.68891121,13.491456 L3.68891121,12.9635811 L3.33544441,12.9635811 C3.00755819,12.9635811 2.88663831,12.8659123 2.88663831,12.6008125 L2.88663831,11.3218205 L3.1773175,11.3218205 C3.61682482,11.3218205 3.80750937,11.5125068 3.80750937,12.0101506 L3.80750937,12.1659552 L4.30050551,12.1659552 L4.30050551,10.0056221 L3.80750937,10.0056221 L3.80750937,10.0986397 C3.80750937,10.4637335 3.67495708,10.7985968 3.21917392,10.7985968 L2.88663831,10.7985968 L2.88663831,9.31961728 L3.80983704,9.31961728 C4.84930625,9.31961728 4.95859967,9.84284101 5.02836434,10.3986212 L5.53530866,10.3986212 L5.53530866,8.79639355 L1.09372374,8.79639355 L1.09372374,9.31961728 L1.56346102,9.31961728 C1.77507676,9.31961728 1.89367492,9.41496015 1.89367492,9.58471768 L1.89367492,12.6170907 C1.89367492,12.814753 1.78670321,12.9635811 1.53555277,12.9635811 L1.09372374,12.9635811 L1.09372374,13.491456 L3.68891121,13.491456 Z M23.3412009,8.65454189 C21.8017585,8.65454189 20.7832205,9.73121992 20.7832205,11.1427618 C20.7832205,12.5519784 21.8017585,13.6379582 23.3412009,13.6379582 C24.8759939,13.6379582 25.8968596,12.5519784 25.8968596,11.1427618 C25.8968596,9.73121992 24.8759939,8.65454189 23.3412009,8.65454189 Z M23.3412009,9.20799619 C24.4527624,9.20799619 24.7852981,10.1311955 24.7852981,11.1427618 C24.7852981,12.1543281 24.4527624,13.0798528 23.3412009,13.0798528 C22.2226623,13.0798528 21.8924543,12.1543281 21.8924543,11.1427618 C21.8924543,10.1311955 22.2226623,9.20799619 23.3412009,9.20799619 Z M19.0112311,9.18009389 C18.9089148,9.0894016 18.4694074,8.65454487 17.6020193,8.65454487 C16.2137267,8.65454487 15.3416891,9.71261938 15.3416891,11.1427648 C15.3416891,12.5845373 16.2276808,13.6379612 17.6020193,13.6379612 C18.4856833,13.6379612 18.9647253,13.233335 19.0740187,13.133341 L19.3367956,13.491459 L19.8181594,13.491459 L19.8181594,11.8636513 C19.8181594,11.5869239 19.9204817,11.5125098 20.1948791,11.5125098 L20.3251037,11.5125098 L20.3251037,10.9869602 L18.1577971,10.9869602 L18.1577971,11.5125098 L18.4787062,11.5125098 C18.7112531,11.5125098 18.8531042,11.6171545 18.8531042,11.8450478 L18.8531042,12.1194494 C18.8531042,12.656626 18.5228903,13.0310216 17.8043303,13.0310216 C16.9043844,13.0310216 16.4532507,12.2217687 16.4532507,11.1427648 C16.4532507,10.0800391 16.9043844,9.266135 17.776422,9.266135 C18.6856726,9.266135 18.9949553,10.112595 19.0995993,10.3986242 L19.6809577,10.3986242 L19.6809577,8.79639653 L19.1856398,8.79639653 L19.0112311,9.18009389 Z M15.1068205,12.3892004 L15.1068205,12.5170997 C15.1068205,13.3263526 14.720796,13.6379612 14.1347883,13.6379612 C13.4487799,13.6379612 13.2185607,13.3077491 13.2185607,12.6682531 L13.2185607,12.4240821 C13.2185607,11.6171545 12.8743986,11.2915929 12.0884015,11.2915929 L11.7163312,11.2915929 L11.7163312,12.7101113 C11.7163312,12.8984717 11.8023717,12.9635841 12.0070104,12.9635841 L12.5232595,12.9635841 L12.5232595,13.491459 L7.8351735,13.491459 L7.8351735,12.9635841 L8.35607194,12.9635841 C8.50024472,12.9635841 8.55373355,12.9287047 8.55373355,12.8449865 C8.55373355,12.8008024 8.53980324,12.7287148 8.51188308,12.6519749 C8.48628465,12.5891884 8.26538799,11.9845742 8.26538799,11.9845742 L6.59107157,11.9845742 C6.59107157,11.9845742 6.38411118,12.5426797 6.34922587,12.6356972 C6.32594915,12.7054601 6.3073754,12.763596 6.3073754,12.8310342 C6.3073754,12.9310276 6.39108824,12.9635841 6.53061759,12.9635841 L7.02826312,12.9635841 L7.02826312,13.491459 L4.81909414,13.491459 L4.81909414,12.9635841 C5.19349212,12.9635841 5.43068249,12.9101012 5.56323477,12.582212 L7.06081481,8.79639653 L7.96076063,8.79639653 L9.49555365,12.582212 C9.62345059,12.91475 9.86529629,12.9635841 10.2396943,12.9635841 L10.4303788,12.9635841 C10.6326898,12.9635841 10.7233857,12.8984717 10.7233857,12.7101113 L10.7233857,9.5754189 C10.7233857,9.38705785 10.6512933,9.31962026 10.4303788,9.31962026 L9.93738864,9.31962026 L9.93738864,8.79639653 L13.0209169,8.79639653 C14.0441103,8.79639653 14.52548,9.28008794 14.52548,10.0126015 C14.52548,10.9218479 13.6208848,11.1009072 13.1976533,11.1241613 L13.1976533,11.1357877 C13.6929711,11.1729948 14.1115473,11.3776334 14.1115473,12.1008453 L14.1115473,12.3752474 C14.1115473,12.8566129 14.2138696,12.9635835 14.3836289,12.9635835 C14.5510605,12.9635835 14.6394228,12.8310336 14.6394228,12.5170991 L14.6394228,12.3891998 L15.1068205,12.3892004 Z M8.07236386,11.4636757 L7.43984433,9.75447759 L7.41894886,9.75447759 L6.78642932,11.4636757 L8.07236386,11.4636757 Z M13.5394758,10.0428321 C13.5394758,9.63122944 13.2441412,9.31962026 12.5883688,9.31962026 L11.7163312,9.31962026 L11.7163312,10.7683692 L12.5883688,10.7683692 C13.192986,10.7683692 13.5394758,10.4962929 13.5394758,10.0428321 Z" id="path20"></path>
            </g>
        </g>
    </g>
</svg>