<?xml version="1.0" encoding="UTF-8"?>
<svg width="27px" height="12px" viewBox="0 0 27 12" version="1.1" xmlns="http://www.w3.org/2000/svg" xmlns:xlink="http://www.w3.org/1999/xlink">
    <!-- Generator: Sketch 51.3 (57544) - http://www.bohemiancoding.com/sketch -->
    <title>ins_9</title>
    <desc>Created with Sketch.</desc>
    <defs></defs>
    <g id="Page-1" stroke="none" stroke-width="1" fill="none" fill-rule="evenodd">
        <g id="capital-one-(ins_9)" transform="translate(-7.000000, -14.000000)" fill-rule="nonzero">
            <g id="logo" transform="translate(7.000000, 14.000000)">
                <path d="M18.2331779,7.9745993 C18.231664,7.97611318 18.2301501,7.97611318 18.2301501,7.97762706 C17.0856564,8.78755318 15.7307333,9.63835407 14.2728663,10.5315436 L14.2153388,10.564849 C14.1956584,10.5784739 14.1911167,10.6057238 14.2047416,10.6254042 C14.2183666,10.6450847 14.2456164,10.6496263 14.2652969,10.6360014 L14.313741,10.6102654 C15.5505815,9.96535228 16.9706015,9.1993287 18.3997048,8.41362467 C18.4072742,8.40908303 18.4148436,8.40454139 18.422413,8.40151363 C18.3436912,8.2713199 18.2785943,8.12901512 18.2331779,7.9745993 Z M25.7420257,1.8963687 C23.9389939,-0.092870403 12.3350991,1.69653646 7.40136224,2.77441945 L7.28630731,2.79864154 C7.26208522,2.80318318 7.24694642,2.82589139 7.25148806,2.8485996 C7.2560297,2.87282169 7.27873791,2.88796049 7.30144612,2.88341885 L7.41498716,2.86071064 C11.5024648,2.13253407 20.0044182,1.1242896 21.833186,2.93791855 C22.3918079,3.49199885 22.2585864,4.20352273 21.6106455,5.04524034 C21.9588381,5.26929467 22.2071145,5.62202885 22.3191416,6.0625681 C24.8473222,4.3851884 26.5443824,2.78198885 25.7420257,1.8963687 Z" id="Shape" fill="#D03027"></path>
                <path d="M18.9628684,7.45231049 C18.9855766,8.15172333 19.4291436,8.72548407 20.0059321,8.72548407 C21.1246899,8.72548407 21.6015622,7.35088049 21.5682569,6.43346885 C21.5440348,5.73254213 21.0898706,5.16029527 20.5130821,5.16029527 C19.5517679,5.15878139 18.929563,6.52732945 18.9628684,7.45231049 Z M18.3724549,7.41446348 C18.3315801,6.22001169 19.2671584,4.99831004 20.6266231,4.99831004 C21.5349515,4.99831004 22.1299066,5.60386228 22.1632119,6.53187109 C22.2071145,7.79141975 21.3320915,8.94802452 19.9105576,8.94802452 C18.9992015,8.94802452 18.4042464,8.34398616 18.3724549,7.41446348 Z" id="Shape" fill="#FFFFFF"></path>
                <path d="M5.49735461,7.09957631 C5.44891043,7.11774288 5.38684133,7.13590945 5.30811954,7.15256213 C5.23091163,7.1707287 5.08860685,7.19495079 4.88271909,7.22825616 C4.74041431,7.25096437 4.64201207,7.2797281 4.58599849,7.32060288 C4.53301267,7.35996378 4.50122118,7.40689407 4.4921379,7.46593542 C4.48154073,7.52800452 4.50122118,7.5764487 4.554207,7.6158096 C4.6087067,7.65365661 4.69953954,7.67333706 4.82821939,7.67333706 C4.92510775,7.67333706 5.01896834,7.65819825 5.10980118,7.62792064 C5.2021479,7.59764303 5.28086969,7.55676825 5.33991103,7.50529631 C5.38381357,7.4674493 5.41560506,7.41900512 5.43982715,7.35996378 C5.45496596,7.32060288 5.4746464,7.23431169 5.49735461,7.09957631 Z M6.67818148,6.36534422 C6.67363984,6.47434363 6.65395939,6.57123199 6.62519566,6.73927273 L6.42536342,7.86105825 C6.40871073,7.96097437 6.44504387,8.03818228 6.53739058,8.09268199 L6.53133506,8.13658452 L5.38684133,8.13507064 L5.37624416,7.85046109 C5.2097173,7.95037721 5.00837118,8.03515452 4.82670551,8.08511258 C4.64503984,8.13204288 4.49819342,8.15172333 4.27868073,8.15172333 C3.90929387,8.15172333 3.69735058,8.11387631 3.55050416,7.98519646 C3.40214387,7.85348885 3.3294776,7.76568378 3.337047,7.5840181 C3.34310252,7.47956034 3.39760222,7.34482497 3.47481013,7.25096437 C3.55353193,7.1555899 3.66253133,7.09352079 3.77910013,7.03750721 C3.89718282,6.98149363 4.03645984,6.94061885 4.23780596,6.90882736 C4.44066596,6.87552199 4.72224775,6.84373049 5.09920401,6.811939 C5.29752237,6.79528631 5.41863282,6.7498699 5.4746464,6.72716169 C5.55336819,6.69688407 5.58515969,6.66206482 5.59575685,6.59848184 C5.61695118,6.48342691 5.58061804,6.41681616 5.42620222,6.38653855 C5.0144267,6.304789 4.24083372,6.43952437 3.84268312,6.53792661 L4.05916804,5.9535687 C4.58448461,5.87636079 5.07649581,5.82791661 5.59575685,5.82791661 C6.42384954,5.82791661 6.68726476,6.0625681 6.67818148,6.36534422 Z" id="Shape" fill="#FFFFFF"></path>
                <path d="M9.99660775,8.13507064 L10.3932445,5.89301348 L11.489294,5.89301348 L11.0926573,8.13507064 L9.99660775,8.13507064 Z M10.4537997,5.37375243 C10.4871051,5.189059 10.7777701,5.0406987 11.1017406,5.0406987 C11.4272249,5.0406987 11.6649042,5.19057288 11.6331127,5.37375243 C11.5982934,5.55844587 11.3091422,5.70832004 10.982144,5.70832004 C10.6581736,5.70832004 10.4220082,5.55844587 10.4537997,5.37375243 Z" id="Shape" fill="#FFFFFF"></path>
                <path d="M15.3810269,7.10411796 C15.3310688,7.12077064 15.2674858,7.13893721 15.1902779,7.15710378 C15.11307,7.17527034 14.9707652,7.19797855 14.7648775,7.23128393 C14.6240866,7.25399213 14.5241704,7.28275587 14.4696707,7.32363064 C14.4166849,7.36147766 14.3864073,7.40992184 14.3742963,7.4674493 C14.3621852,7.5295184 14.3848934,7.57947646 14.4363654,7.61732348 C14.492379,7.65517049 14.5832118,7.67333706 14.7118916,7.67333706 C14.8072661,7.67333706 14.9011267,7.65971213 14.9934734,7.6309484 C15.087334,7.59915691 15.1645419,7.55979601 15.2250972,7.50832407 C15.2674858,7.47047706 15.2992773,7.420519 15.3219855,7.36299154 C15.3371243,7.32514452 15.3568048,7.23885333 15.3810269,7.10411796 Z M16.5618537,6.36837199 C16.5573121,6.47888527 16.5376316,6.57577363 16.507354,6.74230049 L16.3090357,7.8655999 C16.292383,7.96400213 16.3287161,8.04272393 16.4210628,8.09722363 L16.4150073,8.13658452 L15.2705136,8.1380984 L15.2614303,7.85197497 C15.0949034,7.95340497 14.8920434,8.03818228 14.7118916,8.08662646 C14.530226,8.13507064 14.3833796,8.15475109 14.1608391,8.15475109 C13.7914522,8.15475109 13.5810228,8.11841796 13.4341764,7.98822422 C13.2843022,7.85500273 13.2131499,7.76871154 13.2207193,7.58704587 C13.2252609,7.48107422 13.2797606,7.34633885 13.3584824,7.25399213 C13.4372042,7.15710378 13.5462036,7.09654855 13.6642863,7.04053497 C13.782369,6.98452139 13.921646,6.94364661 14.1214782,6.91034124 C14.3243382,6.87854975 14.6074339,6.84524437 14.9843901,6.81345288 C15.1811946,6.79680019 15.3023051,6.75289766 15.3583187,6.73018945 C15.4385543,6.69991184 15.4688319,6.66509258 15.480943,6.59999572 C15.5006234,6.48645467 15.4658042,6.41984393 15.3129022,6.38805243 C14.898099,6.30630288 14.1275337,6.44103825 13.7293831,6.53944049 L13.9443542,5.95508258 C14.4711846,5.87787467 14.9616819,5.82943049 15.480943,5.82943049 C16.3060079,5.83094437 16.5694231,6.06710975 16.5618537,6.36837199 Z" id="Shape" fill="#FFFFFF"></path>
                <path d="M3.1886867,7.32968616 C2.83141088,7.40083855 2.63157864,7.4280884 2.27884446,7.4280884 C1.75504178,7.4280884 1.33872461,7.16770094 1.36143282,6.69082855 C1.37808551,6.37291363 1.7535279,5.7037784 2.70878655,5.7037784 C3.01004879,5.7037784 3.24470028,5.75676422 3.56110133,5.93691601 L3.70037834,5.15878139 C3.27043625,4.99679616 2.9858267,4.97257407 2.61643984,4.97560184 C1.3629467,4.98922676 0.160925507,5.55844587 0.0110513284,6.71656452 C-0.140336731,7.89284975 1.29633596,8.18805646 1.93367969,8.1850287 C2.30155267,8.18351482 2.68456446,8.16837601 3.04184028,8.13204288 L3.1886867,7.32968616 Z" id="Shape" fill="#FFFFFF"></path>
                <path d="M12.0933324,5.88090243 L12.1720542,5.42371049 L13.3180618,5.17392019 L13.1954374,5.87938855 L13.7570871,5.87938855 L13.6511155,6.33052497 L13.1061185,6.32901109 L12.7745786,8.13204288 C12.7745786,8.13204288 11.6709597,8.12447348 11.666418,8.13204288 L11.996444,6.33355273 L11.5816407,6.33355273 L11.666418,5.87938855 L12.0933324,5.87938855 L12.0933324,5.88090243 Z" id="Shape" fill="#FFFFFF"></path>
                <polygon id="Shape" fill="#FFFFFF" points="18.207942 5.03760873 17.6750561 8.13349455 16.5593261 8.13500843 17.1209758 5.00733112"></polygon>
                <path d="M8.54631013,6.41833004 C8.40249148,6.41833004 8.27229775,6.46223258 8.15724282,6.54852378 C8.0421879,6.63632885 7.96952163,6.76349482 7.9407579,6.93153557 C7.90593864,7.12682616 7.92713297,7.26761706 8.00434088,7.35390825 C8.08306267,7.44019945 8.19508984,7.48410199 8.34345013,7.48410199 C8.44336625,7.48410199 8.54631013,7.46593542 8.62200416,7.4280884 C8.71586476,7.37813034 8.78096163,7.3266584 8.83697521,7.24339497 C8.89753043,7.15710378 8.93689133,7.06021542 8.95808566,6.94818825 C8.98987715,6.77106422 8.9626273,6.63935661 8.88087775,6.55155154 C8.80064207,6.46374646 8.69012879,6.41833004 8.54631013,6.41833004 Z M6.55101551,8.90866363 L7.08541536,5.90512452 L8.04824342,5.90512452 L7.97406327,6.28813631 C8.0573267,6.17308139 8.19054819,6.07922079 8.37524163,6.00352676 C8.56144894,5.92783273 8.77036446,5.87181915 8.99744655,5.87181915 C9.24875073,5.87181915 9.40316655,5.88544407 9.59088775,5.98233243 C9.77709506,6.08073467 9.90880267,6.22303945 9.97844118,6.40773288 C10.0511074,6.58939855 10.0662463,6.79528631 10.0268854,7.01782676 C9.96178849,7.38872751 9.7816367,7.67939258 9.4849161,7.89436363 C9.19122327,8.10933467 8.92629416,8.16534825 8.5493379,8.16686213 C8.4161164,8.16686213 8.30408924,8.15323721 8.21174252,8.130529 C8.12090969,8.10630691 8.04824342,8.07754318 7.99374372,8.04272393 C7.9407579,8.00790467 7.88474431,7.95794661 7.81359193,7.87922482 L7.63495401,8.90866363 L6.55101551,8.90866363 Z" id="Shape" fill="#FFFFFF"></path>
                <path d="M26.4459801,6.69385631 C26.4399246,6.51370452 26.3490918,6.39108019 26.1628845,6.39108019 C25.7132619,6.39108019 25.2348757,7.2721587 25.1531261,7.62641066 C25.890386,7.62792064 26.4641467,7.18889527 26.4459801,6.69385631 Z M26.5428685,8.07451542 L26.6291597,8.13355676 C26.409647,8.58015154 25.9630522,8.93894124 25.4392496,8.93894124 C25.0108213,8.93894124 24.6580872,8.65281781 24.6399206,8.11690407 C24.6051013,7.1555899 25.5058603,6.26391422 26.2431201,6.26391422 C26.5595212,6.26391422 26.853214,6.40167736 26.8653251,6.74230049 C26.8925749,7.50681019 25.8192336,7.73994781 25.1122513,7.75660049 C25.0895431,7.83683616 25.0804599,7.91707184 25.0850015,8.03818228 C25.0971125,8.35458333 25.2878615,8.62102631 25.6844982,8.62102631 C26.0266352,8.62102631 26.3687722,8.34550004 26.5428685,8.07451542 Z" id="Shape" fill="#FFFFFF"></path>
                <path d="M22.1465593,6.66963422 C22.2222533,6.65903706 22.3448776,6.64541213 22.3978634,6.64541213 C22.4780991,6.64541213 22.5537931,6.66055094 22.5583348,6.74078661 C22.5598487,6.78771691 22.4750713,7.12834004 22.4569048,7.20706184 L22.2858363,7.96097437 C22.2161978,8.26980601 22.1420176,8.59226258 22.0754069,8.8481084 L22.5144322,8.8481084 L22.7611948,7.65365661 C23.5135934,6.86946646 23.8042585,6.61362064 23.9813825,6.61362064 C24.0616182,6.61362064 24.1161179,6.6560093 24.1206596,6.75138378 C24.1252012,6.88914691 24.03891,7.20252019 24.0101463,7.29335303 L23.7588421,8.16383437 C23.7013146,8.35912497 23.658926,8.536249 23.6634676,8.66190109 C23.671037,8.85265004 23.7860919,8.93742736 23.9586743,8.93742736 C24.279617,8.93742736 24.5127546,8.60285975 24.7156146,8.27434766 L24.6565733,8.16686213 C24.5748237,8.29856975 24.3840748,8.58772094 24.2342006,8.58772094 C24.1872703,8.58772094 24.1418539,8.55592945 24.14034,8.47720766 C24.1357984,8.37577766 24.178187,8.22287572 24.2084646,8.12144572 L24.4885325,7.10109019 C24.5642266,6.8195084 24.5990458,6.63935661 24.5975319,6.54246825 C24.5899625,6.3517193 24.4794493,6.26240034 24.3083807,6.26240034 C24.0192296,6.26240034 23.6362178,6.47434363 22.8232639,7.40840796 L22.8111528,7.40840796 L22.9140967,6.9527299 C22.9701103,6.7029396 23.02461,6.44255213 23.0760819,6.26240034 C22.7945001,6.36383034 22.3918079,6.47737139 22.1435315,6.52581557 L22.1465593,6.66963422 Z" id="Shape" fill="#FFFFFF"></path>
            </g>
        </g>
    </g>
</svg>