<?xml version="1.0" encoding="UTF-8"?>
<svg width="27px" height="27px" viewBox="0 0 27 27" version="1.1" xmlns="http://www.w3.org/2000/svg" xmlns:xlink="http://www.w3.org/1999/xlink">
    <!-- Generator: Sketch 51.3 (57544) - http://www.bohemiancoding.com/sketch -->
    <title>ins_51</title>
    <desc>Created with Sketch.</desc>
    <defs></defs>
    <g id="Page-1" stroke="none" stroke-width="1" fill="none" fill-rule="evenodd">
        <g id="barclays" transform="translate(-7.000000, -7.000000)" fill="#FFFFFF" fill-rule="nonzero">
            <g id="logo" transform="translate(7.000000, 7.000000)">
                <path d="M12.6742533,0.00172051233 C11.9585201,0.00172051233 11.8105561,0.126457656 11.5782869,0.385394762 C11.4870998,0.379372969 11.3916113,0.377652457 11.2918216,0.377652457 C10.7412577,0.377652457 10.0341271,0.458516536 9.43108754,0.861976677 C8.84869411,1.24651118 8.57169163,1.92697381 8.8822441,2.42506213 C8.8822441,2.42506213 9.09042609,2.11967119 9.77519,2.11967119 C9.87153869,2.11967119 9.97821046,2.12999426 10.0917643,2.13945708 C11.0380461,2.25129038 11.7382946,2.7493787 11.6531292,4.06471038 C11.5774267,5.3791818 11.0844999,6.84505831 9.06805943,6.86226343 C9.06805943,6.86226343 8.80826207,6.86226343 8.53125959,6.83645574 C7.59272011,6.73408526 7.29765225,6.14480979 7.29765225,6.14480979 C7.29765225,6.14480979 8.10887381,5.92458421 8.11575586,4.89485758 C8.10887381,4.19460906 7.49895219,3.55371822 6.61891013,3.29478111 C6.33072432,3.21047601 6.01415005,3.16918371 5.68467194,3.16918371 C4.647203,3.16918371 3.48241615,3.60361308 2.69700227,4.62903842 C0.916272013,6.98011852 0.771748977,10.4073791 1.20617834,13.5946282 C1.64318847,16.7887593 3.66909174,19.7471803 3.72844942,19.8280444 C3.77146222,19.8848213 3.81017375,19.9157905 3.85404682,19.9157905 C3.87641348,19.9157905 3.89964039,19.9054674 3.92372757,19.8856815 C4.79860809,19.0366087 5.63305657,17.8761231 5.99006287,17.1001721 C6.37201661,17.4047027 6.17243718,18.0524756 5.96253468,18.7441216 C5.76295525,19.4512522 5.27777077,20.3897916 5.10227851,20.6926018 C4.93280805,20.9885299 4.70570042,21.3326324 5.01109136,21.5124259 C5.04206058,21.5313516 5.08163236,21.5416746 5.12894645,21.5416746 C5.52122326,21.5416746 6.44427813,20.857771 7.47400476,19.4848021 C8.62674802,17.9397821 9.21172221,16.5685337 9.21172221,16.5685337 C9.29602732,16.5874594 9.43710933,16.7302619 9.41388241,17.1190977 C9.3983978,17.5139553 8.99235689,18.9832728 8.20178148,20.3510801 C7.4026035,21.7180271 6.66450371,22.5731218 6.51567939,22.7675397 C6.42363198,22.8802332 6.50191529,22.9507742 6.56127297,22.9963678 C6.61977039,23.0359396 8.03317127,24.3555725 10.0866027,25.4704645 C12.5194072,26.7668706 13.5981684,27 13.5981684,27 C13.5981684,27 14.6743489,26.7728924 17.1071533,25.4773466 C19.1597245,24.3607341 20.5791472,23.0350793 20.6316228,22.990346 C20.6909805,22.949914 20.766683,22.886255 20.6772164,22.7623781 C20.5369946,22.5765628 19.7963141,21.7171669 18.9988566,20.3502198 C18.210862,18.9918754 17.7893364,17.513095 17.7833146,17.123399 C17.7669698,16.7302619 17.8994492,16.6003632 17.9803133,16.5676735 C17.9803133,16.5676735 18.5713093,17.9475244 19.7240526,19.4839419 C20.7589407,20.8586312 21.673393,21.5408144 22.0673903,21.5408144 C22.1172852,21.5408144 22.156857,21.5304913 22.1895467,21.5115657 C22.4854748,21.3317721 22.2652493,20.9825081 22.0914775,20.690021 C21.9297494,20.3889314 21.4376828,19.4564137 21.2286406,18.7432613 C21.0282009,18.0438731 20.8200189,17.3969604 21.2088547,17.0993118 C21.5667213,17.8752629 22.3951479,19.0417702 23.2726092,19.8787995 C23.2958361,19.9028866 23.3225041,19.9149302 23.3483118,19.9149302 C23.3870233,19.9149302 23.4283156,19.8848213 23.4644464,19.8323456 C23.5289656,19.74632 25.5583099,16.7930606 25.991879,13.5937679 C26.4271686,10.3996368 26.2835058,6.98011852 24.501055,4.62817817 C23.7208027,3.60017205 22.5474133,3.16316192 21.5030623,3.16316192 C21.1770252,3.16316192 20.8656125,3.20531447 20.5808677,3.28703881 C19.6939436,3.55371822 19.0866027,4.20063085 19.0917643,4.89399732 C19.0917643,5.92372395 19.9072871,6.14394953 19.9072871,6.14394953 C19.9072871,6.14394953 19.6345859,6.71860065 18.6624964,6.83559549 C18.4809824,6.85796215 18.3046299,6.86828522 18.1360197,6.86828522 C17.4048019,6.86828522 16.7888585,6.63601606 16.2210894,5.83425731 C15.6705255,5.06260753 15.6885909,3.47371439 15.6567614,2.9437966 C15.631814,2.40613649 15.5165396,1.20005735 14.9513513,0.707990824 C14.3878836,0.203020455 13.7013991,0.0335499904 12.8454443,0 C12.7826456,0.00172051233 12.7267289,0.00172051233 12.6742533,0.00172051233" id="path4050"></path>
            </g>
        </g>
    </g>
</svg>